<?xml version="1.0" standalone="no"?>
<!DOCTYPE svg PUBLIC "-//W3C//DTD SVG 20010904//EN"
 "http://www.w3.org/TR/2001/REC-SVG-20010904/DTD/svg10.dtd">
<svg version="1.0" xmlns="http://www.w3.org/2000/svg"
 width="73.000000pt" height="48.000000pt" viewBox="0 0 73.000000 48.000000"
 preserveAspectRatio="xMidYMid meet">

<g transform="translate(0.000000,48.000000) scale(0.100000,-0.100000)"
fill="#000000" stroke="none">
<path d="M0 240 l0 -240 365 0 365 0 0 240 0 240 -365 0 -365 0 0 -240z m215
156 c13 -10 20 -30 23 -74 5 -69 -3 -101 -19 -85 -7 7 -19 7 -38 0 -61 -23
-108 21 -75 70 11 18 24 23 55 23 36 0 40 2 37 23 -3 19 -9 22 -45 21 -28 0
-43 4 -43 12 0 25 74 33 105 10z m85 -44 c8 -28 18 -53 21 -56 3 -4 11 19 18
49 7 30 17 58 23 61 16 10 36 -23 44 -72 3 -25 10 -46 14 -49 4 -2 13 22 20
56 13 60 25 78 40 63 5 -5 -2 -45 -17 -92 -19 -63 -30 -82 -43 -82 -14 0 -22
13 -31 55 -7 30 -15 55 -19 55 -4 0 -12 -25 -19 -55 -9 -41 -17 -55 -30 -55
-14 0 -24 19 -43 83 -14 45 -23 86 -21 90 11 19 29 -3 43 -51z m304 52 c33
-13 17 -30 -24 -26 -54 5 -55 -23 -2 -45 55 -23 68 -55 36 -88 -21 -20 -105
-17 -112 4 -4 11 3 13 31 8 38 -6 75 12 63 31 -3 6 -20 13 -36 17 -27 6 -60
37 -60 57 0 5 9 17 20 28 20 20 54 26 84 14z m46 -243 c0 -16 -9 -39 -20 -52
l-20 -24 10 29 c15 42 6 56 -37 57 -30 0 -34 2 -18 9 11 5 35 9 53 9 29 1 32
-2 32 -28z m-401 -47 c91 -20 209 -14 293 15 32 11 58 16 58 11 0 -15 -103
-58 -168 -71 -109 -21 -254 16 -337 86 l-30 25 55 -25 c30 -13 88 -32 129 -41z"/>
<path d="M137 303 c-12 -11 -8 -41 6 -46 22 -8 57 12 57 33 0 15 -7 20 -28 20
-16 0 -32 -3 -35 -7z"/>
</g>
</svg>
