<?xml version="1.0" standalone="no"?>
<!DOCTYPE svg PUBLIC "-//W3C//DTD SVG 20010904//EN"
 "http://www.w3.org/TR/2001/REC-SVG-20010904/DTD/svg10.dtd">
<svg version="1.0" xmlns="http://www.w3.org/2000/svg"
 width="209.000000pt" height="94.000000pt" viewBox="0 0 209.000000 94.000000"
 preserveAspectRatio="xMidYMid meet">

<g transform="translate(0.000000,94.000000) scale(0.100000,-0.100000)"
fill="#000000" stroke="none">
<path d="M991 906 c-13 -14 -21 -32 -18 -43 4 -16 5 -15 6 3 1 27 36 58 56 51
8 -4 15 -2 15 3 0 19 -37 10 -59 -14z"/>
<path d="M928 873 c6 -2 18 -2 25 0 6 3 1 5 -13 5 -14 0 -19 -2 -12 -5z"/>
<path d="M1067 869 c7 -7 15 -10 18 -7 3 3 -2 9 -12 12 -14 6 -15 5 -6 -5z"/>
<path d="M868 863 c6 -2 18 -2 25 0 6 3 1 5 -13 5 -14 0 -19 -2 -12 -5z"/>
<path d="M488 853 c12 -2 32 -2 45 0 12 2 2 4 -23 4 -25 0 -35 -2 -22 -4z"/>
<path d="M808 853 c6 -2 18 -2 25 0 6 3 1 5 -13 5 -14 0 -19 -2 -12 -5z"/>
<path d="M1105 852 c6 -4 23 -24 38 -44 15 -21 33 -38 40 -38 7 0 4 5 -5 10
-9 6 -26 26 -38 45 -12 19 -27 35 -33 35 -8 0 -8 -3 -2 -8z"/>
<path d="M418 843 c6 -2 18 -2 25 0 6 3 1 5 -13 5 -14 0 -19 -2 -12 -5z"/>
<path d="M578 843 c6 -2 18 -2 25 0 6 3 1 5 -13 5 -14 0 -19 -2 -12 -5z"/>
<path d="M630 840 c-12 -8 -12 -10 3 -16 21 -8 35 2 21 16 -5 5 -15 6 -24 0z"/>
<path d="M657 748 c-54 -54 -95 -98 -91 -98 3 0 52 45 109 100 57 55 98 99 91
98 -6 -1 -55 -46 -109 -100z"/>
<path d="M368 833 c6 -2 18 -2 25 0 6 3 1 5 -13 5 -14 0 -19 -2 -12 -5z"/>
<path d="M613 760 c-45 -44 -77 -82 -72 -86 6 -3 13 -3 16 0 4 3 2 6 -4 6 -17
0 140 147 162 153 l20 5 -20 1 c-12 0 -52 -31 -102 -79z"/>
<path d="M318 823 c7 -3 16 -2 19 1 4 3 -2 6 -13 5 -11 0 -14 -3 -6 -6z"/>
<path d="M503 823 c7 -11 -198 -217 -225 -226 -20 -7 -24 -28 -5 -26 6 1 65
57 130 124 82 84 115 125 106 130 -7 5 -10 4 -6 -2z"/>
<path d="M810 820 c0 -5 5 -10 10 -10 6 0 10 5 10 10 0 6 -4 10 -10 10 -5 0
-10 -4 -10 -10z"/>
<path d="M990 823 c14 -3 30 -9 35 -15 7 -7 3 -8 -12 -4 -29 9 -63 -9 -63 -34
0 -27 11 -50 23 -50 7 0 7 4 -1 12 -18 18 -15 56 6 62 9 2 29 3 44 1 16 -2 31
2 35 8 3 7 3 9 -2 5 -4 -4 -14 -1 -22 7 -8 8 -26 14 -41 14 l-27 -2 25 -4z"/>
<path d="M180 744 c-41 -42 -86 -80 -99 -85 -16 -7 -21 -13 -14 -20 6 -6 39
20 98 80 48 50 97 92 109 94 20 4 20 4 1 6 -13 1 -47 -26 -95 -75z"/>
<path d="M448 813 c6 -2 18 -2 25 0 6 3 1 5 -13 5 -14 0 -19 -2 -12 -5z"/>
<path d="M544 811 c3 -4 -48 -61 -114 -125 -66 -65 -120 -120 -120 -122 0 -2
7 -4 15 -4 8 0 15 6 15 14 0 8 55 66 122 130 94 90 116 116 99 116 -12 0 -20
-4 -17 -9z"/>
<path d="M864 799 c16 -25 15 -26 -93 -132 -59 -59 -105 -107 -102 -107 4 0
51 45 106 100 85 85 125 116 125 96 0 -3 -21 -26 -47 -52 l-48 -46 62 48 c62
49 76 67 48 62 -8 -2 -26 11 -41 27 -21 25 -22 26 -10 4z"/>
<path d="M940 805 c-7 -9 -11 -17 -9 -20 3 -2 10 5 17 15 14 24 10 26 -8 5z"/>
<path d="M385 800 c-7 -12 2 -12 30 0 19 8 19 9 -2 9 -12 1 -25 -3 -28 -9z"/>
<path d="M480 678 l-125 -129 -65 2 c-36 1 -64 -2 -62 -7 1 -5 30 -8 65 -6
l62 4 130 128 c72 70 137 130 145 133 10 4 8 5 -5 5 -12 -1 -70 -52 -145 -130z"/>
<path d="M348 793 c7 -3 16 -2 19 1 4 3 -2 6 -13 5 -11 0 -14 -3 -6 -6z"/>
<path d="M298 783 c6 -2 18 -2 25 0 6 3 1 5 -13 5 -14 0 -19 -2 -12 -5z"/>
<path d="M167 682 c-53 -55 -100 -96 -103 -93 -4 3 -4 0 0 -7 6 -10 17 -3 42
25 29 34 33 35 34 16 0 -13 -14 -33 -37 -52 -20 -17 -34 -34 -30 -38 4 -4 21
9 37 28 26 31 29 32 30 12 0 -13 -14 -33 -36 -51 -23 -19 -32 -32 -24 -37 6
-4 14 -4 17 -1 4 3 1 6 -6 6 -6 0 4 14 24 31 31 28 35 36 35 82 0 50 2 54 62
114 34 35 60 63 57 63 -3 0 -49 -44 -102 -98z"/>
<path d="M303 714 c-32 -36 -68 -70 -81 -75 -23 -9 -22 -29 1 -29 7 0 6 4 -3
10 -13 9 -13 10 0 10 9 0 49 34 90 75 41 41 69 75 63 75 -6 0 -37 -30 -70 -66z"/>
<path d="M975 770 c-8 -13 3 -30 20 -30 14 0 27 24 18 34 -10 9 -31 7 -38 -4z"/>
<path d="M1031 765 c0 -12 -5 -26 -11 -33 -5 -7 -3 -6 6 2 9 7 14 22 11 32 -4
17 -5 17 -6 -1z"/>
<path d="M1110 766 c0 -22 17 -28 24 -10 9 22 8 24 -9 24 -8 0 -15 -6 -15 -14z"/>
<path d="M241 706 l-55 -61 50 48 c27 26 55 47 62 47 7 0 12 4 12 9 0 25 -20
13 -69 -43z"/>
<path d="M308 666 c-54 -55 -98 -103 -98 -106 0 -2 37 32 83 76 45 45 93 89
107 98 15 10 19 16 10 16 -13 0 -13 2 0 10 8 5 11 9 5 9 -5 -1 -54 -47 -107
-103z"/>
<path d="M700 694 c-41 -42 -84 -80 -95 -84 -14 -6 -15 -9 -5 -9 9 -1 47 31
85 70 39 39 84 77 100 85 23 10 26 13 10 14 -13 0 -50 -30 -95 -76z"/>
<path d="M650 695 c-58 -59 -69 -66 -99 -63 -24 2 -36 -2 -38 -12 -4 -13 -3
-13 6 0 6 8 11 10 11 4 0 -6 12 -9 29 -6 19 2 52 27 97 73 38 38 66 69 63 69
-2 0 -34 -29 -69 -65z"/>
<path d="M1237 716 c4 -28 2 -35 -13 -39 -17 -4 -17 -5 1 -6 12 0 26 10 37 29
16 28 16 30 -2 40 -28 15 -29 13 -23 -24z"/>
<path d="M1030 715 c-15 -18 -43 -19 -73 -4 -22 10 -22 10 -2 -6 14 -11 31
-15 54 -11 38 6 58 20 43 30 -5 3 -15 -1 -22 -9z"/>
<path d="M1148 688 c5 -5 16 -8 23 -6 8 3 3 7 -10 11 -17 4 -21 3 -13 -5z"/>
<path d="M710 666 c0 -8 -16 -28 -35 -45 -20 -17 -32 -31 -28 -31 14 1 93 77
86 84 -11 11 -23 7 -23 -8z"/>
<path d="M970 670 c10 -6 11 -10 3 -10 -7 0 -13 -8 -13 -17 0 -15 2 -14 14 2
15 21 12 35 -7 35 -7 0 -6 -4 3 -10z"/>
<path d="M897 663 c-3 -5 -1 -17 3 -27 6 -17 7 -18 13 -3 4 10 1 17 -6 17 -8
0 -6 4 3 10 9 6 10 10 3 10 -6 0 -14 -3 -16 -7z"/>
<path d="M1208 653 c7 -3 16 -2 19 1 4 3 -2 6 -13 5 -11 0 -14 -3 -6 -6z"/>
<path d="M453 600 c-57 -52 -62 -60 -38 -60 8 0 15 5 15 12 0 7 19 32 42 55
57 58 45 54 -19 -7z"/>
<path d="M1148 643 c6 -2 18 -2 25 0 6 3 1 5 -13 5 -14 0 -19 -2 -12 -5z"/>
<path d="M182 595 c-2 -47 -6 -55 -52 -100 -27 -27 -50 -56 -49 -65 0 -13 1
-13 6 0 3 8 29 40 57 70 50 53 52 56 45 100 l-6 45 -1 -50z"/>
<path d="M1088 633 c6 -2 18 -2 25 0 6 3 1 5 -13 5 -14 0 -19 -2 -12 -5z"/>
<path d="M731 576 l-43 -51 45 46 c26 27 48 42 51 35 3 -8 5 -8 5 1 2 27 -17
18 -58 -31z"/>
<path d="M995 583 c-33 -24 -69 -49 -80 -53 -13 -6 -15 -9 -5 -9 8 0 49 24 90
54 41 30 70 55 65 54 -6 0 -37 -21 -70 -46z"/>
<path d="M936 604 c-11 -8 -16 -14 -10 -14 13 0 39 18 34 24 -3 2 -14 -2 -24
-10z"/>
<path d="M754 553 c-28 -29 -48 -53 -45 -53 9 0 106 99 100 102 -2 2 -27 -21
-55 -49z"/>
<path d="M883 591 c-10 -16 -9 -18 7 -14 11 3 16 11 13 19 -7 18 -6 18 -20 -5z"/>
<path d="M558 593 c7 -3 16 -2 19 1 4 3 -2 6 -13 5 -11 0 -14 -3 -6 -6z"/>
<path d="M475 554 c-22 -20 -31 -31 -19 -25 11 5 27 17 34 27 8 9 23 20 35 24
12 6 14 9 5 9 -8 0 -33 -16 -55 -35z"/>
<path d="M580 570 c-8 -5 -10 -10 -5 -10 6 0 17 5 25 10 8 5 11 10 5 10 -5 0
-17 -5 -25 -10z"/>
<path d="M547 553 c-4 -3 -7 -18 -7 -32 0 -17 -12 -37 -37 -59 l-38 -34 38 28
c55 40 55 23 0 -26 -44 -38 -52 -42 -91 -37 -25 3 -42 1 -40 -5 2 -5 7 -9 11
-9 4 1 22 1 40 1 24 0 45 10 75 36 28 24 42 31 42 21 0 -9 -19 -32 -42 -53
-24 -20 -34 -31 -23 -23 11 7 30 22 43 33 22 19 22 19 22 -1 0 -12 -15 -32
-34 -47 -27 -20 -46 -26 -86 -26 -46 0 -58 5 -111 46 -33 25 -65 43 -72 41 -9
-4 -9 -6 1 -6 8 -1 40 -21 72 -46 50 -38 65 -45 104 -45 l46 0 2 -37 1 -38 4
35 c6 46 24 69 34 43 7 -16 8 -16 8 3 1 12 7 27 15 33 12 10 15 7 19 -16 2
-15 5 9 6 54 1 66 4 84 19 93 16 11 16 11 0 6 -12 -3 -18 0 -18 9 0 8 8 19 18
25 16 11 16 11 -2 6 -15 -5 -17 -2 -13 14 5 21 4 24 -6 13z"/>
<path d="M490 525 c-18 -19 -35 -25 -69 -27 l-46 -1 41 -4 c43 -4 120 30 108
48 -7 12 -7 12 -34 -16z"/>
<path d="M650 520 c-8 -5 -10 -10 -5 -10 6 0 17 5 25 10 8 5 11 10 5 10 -5 0
-17 -5 -25 -10z"/>
<path d="M245 512 c-86 -5 -147 -84 -119 -156 4 -11 18 -2 56 39 28 30 58 55
67 56 12 0 12 2 2 6 -7 3 -36 -18 -67 -48 l-54 -53 0 40 c0 30 6 46 24 63 20
19 24 20 30 6 6 -18 26 -11 26 8 0 8 -3 8 -9 -1 -7 -11 -9 -10 -14 3 -9 22 14
29 74 22 27 -3 49 -2 49 3 0 13 -10 15 -65 12z"/>
<path d="M341 486 c-27 -27 -32 -40 -28 -67 l4 -34 1 37 c1 25 9 42 25 55 22
17 42 43 35 43 -2 0 -19 -15 -37 -34z"/>
<path d="M600 500 c-8 -5 -10 -10 -5 -10 6 0 17 5 25 10 8 5 11 10 5 10 -5 0
-17 -5 -25 -10z"/>
<path d="M740 496 c0 -8 -3 -23 -7 -33 -4 -11 2 -8 15 9 26 31 27 38 7 38 -8
0 -15 -6 -15 -14z"/>
<path d="M782 486 c-17 -37 -15 -45 4 -18 8 12 14 27 12 33 -2 6 -9 -1 -16
-15z"/>
<path d="M832 503 c-13 -5 -45 -73 -38 -80 2 -3 10 11 17 30 7 20 22 40 33 46
21 10 12 14 -12 4z"/>
<path d="M923 470 c0 -25 2 -35 4 -22 2 12 2 32 0 45 -2 12 -4 2 -4 -23z"/>
<path d="M1110 300 l0 -210 90 0 c83 0 93 2 115 25 21 20 25 33 25 88 0 51 -4
68 -20 82 -19 17 -19 18 0 43 31 38 28 125 -5 157 -22 23 -32 25 -115 25 l-90
0 0 -210z m145 90 c0 -55 0 -55 -32 -58 l-33 -3 0 61 0 61 33 -3 c32 -3 32 -3
32 -58z m9 -136 c20 -52 -2 -104 -44 -104 -30 0 -30 0 -30 60 l0 60 34 0 c22
0 36 -6 40 -16z"/>
<path d="M1417 323 c-21 -104 -41 -198 -44 -211 -5 -22 -3 -23 33 -20 36 3 39
6 44 38 5 33 7 35 48 38 39 3 42 1 42 -22 0 -46 10 -56 52 -56 28 0 39 4 36
13 -3 6 -22 101 -44 209 l-39 198 -45 0 -45 0 -38 -187z m99 -31 l7 -62 -28 0
c-25 0 -27 2 -21 33 3 17 8 52 12 76 9 55 20 37 30 -47z"/>
<path d="M1670 300 l0 -210 40 0 40 0 0 210 0 210 -40 0 -40 0 0 -210z"/>
<path d="M1810 300 l0 -210 40 0 40 0 0 90 c0 96 5 104 51 80 15 -9 19 -22 19
-71 0 -78 11 -99 54 -99 l33 0 -4 78 c-3 53 -10 85 -23 103 -17 25 -17 27 -2
43 13 12 17 34 17 82 0 60 -3 68 -28 90 -25 21 -38 24 -113 24 l-84 0 0 -210z
m148 97 c4 -55 -9 -77 -44 -77 -23 0 -24 3 -24 66 l0 65 33 -3 c31 -3 32 -5
35 -51z"/>
<path d="M682 450 c0 -19 2 -27 5 -17 2 9 2 25 0 35 -3 9 -5 1 -5 -18z"/>
<path d="M363 453 c-10 -10 -14 -15 -9 -10 15 11 26 9 24 -5 -2 -8 11 -13 37
-14 22 -1 33 1 24 3 -10 2 -19 13 -22 24 -6 24 -29 25 -54 2z"/>
<path d="M591 462 c-1 -8 -6 -10 -13 -6 -10 5 -10 4 -1 -6 15 -16 28 -8 20 12
-4 11 -6 11 -6 0z"/>
<path d="M650 443 c0 -15 -2 -15 -9 -4 -7 10 -9 6 -8 -13 2 -24 3 -25 15 -9
12 17 17 43 7 43 -3 0 -5 -8 -5 -17z"/>
<path d="M848 453 c6 -2 18 -2 25 0 6 3 1 5 -13 5 -14 0 -19 -2 -12 -5z"/>
<path d="M610 429 c0 -11 4 -18 10 -14 5 3 7 12 3 20 -7 21 -13 19 -13 -6z"/>
<path d="M747 405 c-20 -43 -22 -56 -4 -31 12 16 15 15 30 -21 9 -21 18 -47
20 -58 4 -18 5 -17 6 3 0 12 -8 41 -19 63 -12 23 -18 48 -15 60 10 31 0 22
-18 -16z"/>
<path d="M590 406 c0 -22 3 -27 11 -19 8 8 8 16 0 30 -9 16 -10 14 -11 -11z"/>
<path d="M858 423 c7 -3 16 -2 19 1 4 3 -2 6 -13 5 -11 0 -14 -3 -6 -6z"/>
<path d="M660 389 c-7 -11 -10 -23 -7 -25 2 -2 9 7 15 21 14 30 7 33 -8 4z"/>
<path d="M858 393 c7 -3 16 -2 19 1 4 3 -2 6 -13 5 -11 0 -14 -3 -6 -6z"/>
<path d="M349 370 c13 -11 28 -20 35 -19 6 0 1 5 -11 11 -13 6 -23 15 -23 20
0 4 -6 8 -12 8 -7 -1 -2 -10 11 -20z"/>
<path d="M913 350 c0 -25 2 -35 4 -22 2 12 2 32 0 45 -2 12 -4 2 -4 -23z"/>
<path d="M566 371 c-3 -5 -2 -19 2 -32 9 -23 9 -23 14 4 5 27 -5 46 -16 28z"/>
<path d="M190 360 c9 -6 10 -10 3 -10 -7 0 -24 -12 -39 -26 -24 -25 -26 -32
-22 -105 2 -44 -1 -75 -6 -72 -5 4 -6 1 -2 -6 15 -24 20 1 17 78 l-3 79 36 28
c33 27 38 44 13 44 -7 0 -6 -4 3 -10z"/>
<path d="M229 368 c0 -2 -2 -16 -4 -33 l-4 -30 14 25 c17 30 18 40 5 40 -5 0
-10 -1 -11 -2z"/>
<path d="M840 363 c0 -4 9 -21 19 -36 l18 -28 6 28 c3 15 5 29 4 29 -10 8 -47
13 -47 7z"/>
<path d="M93 295 c0 -38 2 -53 4 -32 2 20 2 52 0 70 -2 17 -4 1 -4 -38z"/>
<path d="M632 330 c0 -19 2 -27 5 -17 2 9 2 25 0 35 -3 9 -5 1 -5 -18z"/>
<path d="M816 345 c4 -11 7 -38 7 -60 -1 -38 -1 -38 7 -10 4 17 8 28 9 25 10
-36 30 -80 30 -65 0 11 -13 45 -30 75 -17 30 -27 46 -23 35z"/>
<path d="M280 340 c10 -6 11 -10 3 -10 -7 0 -13 -5 -13 -11 0 -8 5 -8 15 1 16
13 11 30 -8 30 -7 0 -6 -4 3 -10z"/>
<path d="M602 325 c0 -16 2 -22 5 -12 2 9 2 23 0 30 -3 6 -5 -1 -5 -18z"/>
<path d="M707 319 c-9 -17 -17 -43 -16 -57 1 -27 1 -27 8 3 4 17 13 41 20 53
19 35 8 35 -12 1z"/>
<path d="M662 310 c0 -19 2 -27 5 -17 2 9 2 25 0 35 -3 9 -5 1 -5 -18z"/>
<path d="M175 311 c-6 -11 13 -26 22 -17 4 3 0 6 -8 6 -11 0 -11 2 1 10 9 6
10 10 3 10 -6 0 -14 -4 -18 -9z"/>
<path d="M201 269 c-6 -18 -9 -34 -7 -36 2 -2 9 10 15 28 6 18 9 34 7 36 -2 2
-9 -10 -15 -28z"/>
<path d="M256 285 c-9 -26 -7 -32 5 -12 6 10 9 21 6 23 -2 3 -7 -2 -11 -11z"/>
<path d="M350 291 c0 -6 4 -13 10 -16 6 -3 7 1 4 9 -7 18 -14 21 -14 7z"/>
<path d="M551 284 c0 -11 3 -14 6 -6 3 7 2 16 -1 19 -3 4 -6 -2 -5 -13z"/>
<path d="M582 280 c0 -14 2 -19 5 -12 2 6 2 18 0 25 -3 6 -5 1 -5 -13z"/>
<path d="M395 280 c-4 -6 -3 -16 3 -22 6 -6 12 -6 17 2 4 6 3 16 -3 22 -6 6
-12 6 -17 -2z"/>
<path d="M642 260 c0 -19 2 -27 5 -17 2 9 2 25 0 35 -3 9 -5 1 -5 -18z"/>
<path d="M492 255 c0 -16 2 -22 5 -12 2 9 2 23 0 30 -3 6 -5 -1 -5 -18z"/>
<path d="M611 262 c-1 -14 -5 -21 -12 -16 -6 3 -3 -5 6 -19 17 -26 13 -53 -7
-41 -5 4 -16 20 -24 38 -7 17 -13 24 -14 15 0 -10 24 -48 53 -85 30 -38 56
-77 60 -87 3 -9 11 -17 17 -17 13 0 13 17 0 25 -5 3 -6 13 -3 21 4 12 8 13 14
3 5 -9 10 -4 15 14 3 16 4 31 0 34 -3 4 -6 -4 -6 -16 0 -12 -4 -20 -9 -16 -6
3 -14 -2 -19 -10 -7 -14 -13 -11 -35 19 -15 19 -27 43 -27 53 0 15 2 16 11 3
9 -12 9 -11 3 5 -4 11 -10 38 -14 60 -4 22 -8 30 -9 17z"/>
<path d="M157 264 c-8 -8 1 -24 14 -24 5 0 9 7 9 15 0 15 -12 20 -23 9z"/>
<path d="M903 230 c0 -25 2 -35 4 -22 2 12 2 32 0 45 -2 12 -4 2 -4 -23z"/>
<path d="M672 230 c0 -19 2 -27 5 -17 2 9 2 25 0 35 -3 9 -5 1 -5 -18z"/>
<path d="M236 235 c-9 -26 -7 -32 5 -12 6 10 9 21 6 23 -2 3 -7 -2 -11 -11z"/>
<path d="M791 249 c-2 -17 72 -158 80 -153 5 3 9 8 9 11 0 4 -3 4 -6 0 -4 -3
-24 29 -44 71 -21 42 -39 74 -39 71z"/>
<path d="M411 235 c1 -19 18 -51 18 -35 0 8 -4 22 -9 30 -5 8 -9 11 -9 5z"/>
<path d="M383 218 c2 -7 13 -40 23 -73 21 -72 20 -69 34 -60 8 5 7 12 -3 23
-8 10 -22 41 -32 70 -9 28 -19 52 -22 52 -3 0 -3 -6 0 -12z"/>
<path d="M176 205 c-3 -9 -6 -22 -5 -28 0 -7 5 -1 10 12 5 13 8 26 5 28 -2 2
-6 -3 -10 -12z"/>
<path d="M447 206 c-6 -15 1 -26 15 -26 11 0 10 27 -1 34 -5 3 -11 0 -14 -8z"/>
<path d="M702 195 c0 -16 2 -22 5 -12 2 9 2 23 0 30 -3 6 -5 -1 -5 -18z"/>
<path d="M482 180 c0 -19 2 -27 5 -17 2 9 2 25 0 35 -3 9 -5 1 -5 -18z"/>
<path d="M651 178 c0 -21 4 -38 10 -38 5 0 7 -4 4 -10 -3 -6 1 -7 9 -4 10 4
16 17 15 33 l-1 26 -8 -25 c-8 -27 -15 -17 -23 30 -3 17 -5 14 -6 -12z"/>
<path d="M216 184 c-14 -37 -6 -71 19 -82 37 -17 45 -14 11 4 -26 14 -28 20
-23 55 5 41 3 49 -7 23z"/>
<path d="M857 174 c-8 -8 1 -24 14 -24 5 0 9 7 9 15 0 15 -12 20 -23 9z"/>
<path d="M101 154 c0 -11 3 -14 6 -6 3 7 2 16 -1 19 -3 4 -6 -2 -5 -13z"/>
<path d="M446 137 c3 -10 9 -15 12 -12 3 3 0 11 -7 18 -10 9 -11 8 -5 -6z"/>
<path d="M897 139 c7 -7 15 -10 18 -7 3 3 -2 9 -12 12 -14 6 -15 5 -6 -5z"/>
<path d="M182 115 c0 -16 2 -22 5 -12 2 9 2 23 0 30 -3 6 -5 -1 -5 -18z"/>
<path d="M480 137 c3 -3 23 -18 44 -32 27 -18 42 -23 49 -16 7 7 4 12 -9 16
-10 4 -35 13 -54 22 -19 8 -33 12 -30 10z"/>
<path d="M938 123 c7 -3 16 -2 19 1 4 3 -2 6 -13 5 -11 0 -14 -3 -6 -6z"/>
<path d="M890 110 c0 -5 15 -10 33 -9 27 0 29 2 12 9 -28 12 -45 12 -45 0z"/>
<path d="M985 106 c21 -15 35 -12 35 7 0 7 -4 6 -10 -3 -6 -10 -10 -11 -10 -2
0 6 -8 12 -17 12 -15 0 -14 -2 2 -14z"/>
<path d="M125 90 c1 -11 5 -23 10 -27 4 -5 5 -3 2 4 -4 6 -2 13 4 15 7 2 6 8
-3 16 -12 9 -14 8 -13 -8z"/>
<path d="M460 100 c0 -5 15 -10 33 -9 27 0 29 2 12 9 -28 12 -45 12 -45 0z"/>
<path d="M220 79 c0 -5 11 -9 25 -9 14 0 25 2 25 4 0 2 -11 6 -25 8 -14 3 -25
1 -25 -3z"/>
<path d="M305 79 c-4 -5 -4 -13 -1 -16 3 -4 6 0 6 8 0 11 2 11 10 -1 6 -9 10
-10 10 -3 0 17 -17 25 -25 12z"/>
<path d="M714 78 c-3 -4 11 -8 30 -8 45 0 55 15 10 16 -19 0 -37 -3 -40 -8z"/>
<path d="M806 82 c-3 -6 -1 -14 5 -17 15 -10 25 3 12 16 -7 7 -13 7 -17 1z"/>
</g>
</svg>
