<?xml version="1.0" standalone="no"?>
<!DOCTYPE svg PUBLIC "-//W3C//DTD SVG 20010904//EN"
 "http://www.w3.org/TR/2001/REC-SVG-20010904/DTD/svg10.dtd">
<svg version="1.0" xmlns="http://www.w3.org/2000/svg"
 width="50.000000pt" height="43.000000pt" viewBox="0 0 50.000000 43.000000"
 preserveAspectRatio="xMidYMid meet">

<g transform="translate(0.000000,43.000000) scale(0.100000,-0.100000)"
fill="#000000" stroke="none">
<path d="M0 215 l0 -215 250 0 250 0 0 215 0 215 -250 0 -250 0 0 -215z m280
140 c0 -20 -5 -25 -25 -25 -20 0 -25 5 -25 25 0 20 5 25 25 25 20 0 25 -5 25
-25z m-120 -61 c0 -21 -4 -25 -22 -22 -15 2 -24 11 -26 26 -3 18 1 22 22 22
21 0 26 -5 26 -26z m60 0 c0 -21 -4 -25 -22 -22 -15 2 -24 11 -26 26 -3 18 1
22 22 22 21 0 26 -5 26 -26z m60 0 c0 -21 -4 -25 -22 -22 -15 2 -24 11 -26 26
-3 18 1 22 22 22 21 0 26 -5 26 -26z m135 -35 c4 -13 16 -19 36 -19 16 0 29
-4 29 -9 0 -16 -31 -41 -50 -41 -11 0 -26 -13 -35 -30 -49 -94 -134 -139 -224
-119 -25 6 -57 20 -70 32 -26 25 -51 76 -51 106 0 20 7 21 158 23 l157 3 -3
27 c-4 40 15 73 33 58 8 -7 17 -20 20 -31z m-317 -21 c-2 -15 -10 -23 -23 -23
-13 0 -21 8 -23 23 -3 18 1 22 23 22 22 0 26 -4 23 -22z m62 -4 c0 -21 -4 -25
-22 -22 -15 2 -24 11 -26 26 -3 18 1 22 22 22 21 0 26 -5 26 -26z m60 0 c0
-21 -4 -25 -22 -22 -15 2 -24 11 -26 26 -3 18 1 22 22 22 21 0 26 -5 26 -26z
m60 0 c0 -21 -4 -25 -22 -22 -15 2 -24 11 -26 26 -3 18 1 22 22 22 21 0 26 -5
26 -26z m60 0 c0 -21 -4 -25 -22 -22 -15 2 -24 11 -26 26 -3 18 1 22 22 22 21
0 26 -5 26 -26z"/>
</g>
</svg>
