<?xml version="1.0" standalone="no"?>
<!DOCTYPE svg PUBLIC "-//W3C//DTD SVG 20010904//EN"
 "http://www.w3.org/TR/2001/REC-SVG-20010904/DTD/svg10.dtd">
<svg version="1.0" xmlns="http://www.w3.org/2000/svg"
 width="133.000000pt" height="36.000000pt" viewBox="0 0 133.000000 36.000000"
 preserveAspectRatio="xMidYMid meet">

<g transform="translate(0.000000,36.000000) scale(0.100000,-0.100000)"
fill="#000000" stroke="none">
<path d="M0 180 l0 -180 665 0 665 0 0 180 0 180 -665 0 -665 0 0 -180z m231
81 c40 -41 40 -91 0 -132 -41 -40 -91 -40 -132 0 -40 41 -40 91 0 132 22 21
39 29 66 29 27 0 44 -8 66 -29z m494 -31 c10 -34 22 -63 25 -65 4 -2 15 23 25
56 17 54 37 81 50 67 3 -2 -9 -46 -26 -96 -41 -123 -54 -123 -96 3 -28 85 -29
95 -14 95 13 0 23 -16 36 -60z m145 -35 c0 -78 -3 -95 -15 -95 -12 0 -15 17
-15 95 0 78 3 95 15 95 12 0 15 -17 15 -95z m95 33 l40 -63 3 63 c3 53 6 63
20 60 14 -3 17 -16 17 -93 0 -117 -15 -123 -76 -28 l-44 67 -3 -67 c-2 -51 -6
-67 -17 -67 -12 0 -15 19 -15 95 0 84 2 95 18 95 10 0 33 -25 57 -62z m256 33
c21 -22 29 -39 29 -66 0 -51 -44 -95 -95 -95 -51 0 -95 44 -95 95 0 27 8 44
29 66 41 40 91 40 132 0z m49 19 c0 -5 -7 -10 -15 -10 -8 0 -15 5 -15 10 0 6
7 10 15 10 8 0 15 -4 15 -10z m-872 -80 c16 -28 16 -28 27 -7 13 27 51 46 76
40 28 -8 53 -49 44 -70 -5 -10 -9 -24 -9 -31 -4 -50 -116 -34 -116 17 0 9 -10
3 -28 -18 -24 -29 -33 -33 -60 -29 -31 4 -32 3 -32 -29 0 -23 -5 -33 -15 -33
-12 0 -15 17 -15 94 l0 95 30 -1 c17 -1 33 1 36 4 12 12 48 -7 62 -32z m269
18 c19 -16 18 -118 -2 -118 -11 0 -15 12 -15 50 0 46 -2 50 -24 50 -27 0 -36
-16 -36 -66 0 -24 -5 -34 -15 -34 -12 0 -15 14 -15 64 l0 63 47 1 c26 1 53 -4
60 -10z"/>
<path d="M120 240 c-11 -11 -20 -31 -20 -45 0 -46 60 -82 96 -57 15 10 34 47
34 66 0 24 -37 56 -65 56 -14 0 -34 -9 -45 -20z m53 -19 c-2 -6 4 -11 12 -11
22 0 18 -38 -5 -50 -16 -8 -24 -6 -40 10 -20 20 -19 29 3 58 12 15 33 10 30
-7z"/>
<path d="M1110 240 c-39 -39 -11 -110 44 -110 34 0 69 46 61 80 -12 50 -68 67
-105 30z m53 -19 c-2 -6 4 -11 12 -11 21 0 19 -37 -2 -48 -23 -12 -41 -5 -54
20 -8 15 -7 24 7 39 18 20 41 20 37 0z"/>
<path d="M305 180 c-8 -27 12 -52 39 -48 16 2 21 10 21 33 0 25 -4 31 -27 33
-19 2 -28 -2 -33 -18z"/>
<path d="M455 190 c-4 -6 8 -10 30 -10 22 0 34 4 30 10 -3 6 -17 10 -30 10
-13 0 -27 -4 -30 -10z"/>
<path d="M455 140 c3 -5 17 -10 30 -10 13 0 27 5 30 10 4 6 -8 10 -30 10 -22
0 -34 -4 -30 -10z"/>
</g>
</svg>
