<?xml version="1.0" standalone="no"?>
<!DOCTYPE svg PUBLIC "-//W3C//DTD SVG 20010904//EN"
 "http://www.w3.org/TR/2001/REC-SVG-20010904/DTD/svg10.dtd">
<svg version="1.0" xmlns="http://www.w3.org/2000/svg"
 width="246.000000pt" height="270.000000pt" viewBox="0 0 246.000000 270.000000"
 preserveAspectRatio="xMidYMid meet">

<g transform="translate(0.000000,270.000000) scale(0.100000,-0.100000)"
fill="#000000" stroke="none">
<path d="M1125 2693 c-145 -12 -237 -27 -254 -42 -10 -9 -45 -47 -76 -86 -32
-38 -84 -100 -117 -136 l-58 -67 0 -96 0 -96 178 0 c99 0 227 -3 285 -7 l107
-6 0 -39 0 -38 -404 0 -404 0 -63 -74 c-35 -40 -93 -108 -129 -151 -36 -43
-89 -106 -117 -139 -29 -34 -53 -68 -54 -76 0 -8 -4 -42 -8 -75 -15 -113 29
-377 79 -475 32 -63 85 -115 143 -141 43 -19 75 -23 179 -27 l126 -4 4 178 c3
159 6 184 25 227 31 66 115 152 182 184 l56 28 370 5 370 5 51 27 c59 31 108
84 138 147 20 43 21 66 24 349 2 195 -1 321 -8 356 -21 104 -94 183 -204 225
-69 26 -322 52 -421 44z m-198 -183 c21 -13 36 -32 44 -59 14 -48 6 -85 -26
-116 -77 -78 -204 -15 -192 95 10 86 97 127 174 80z"/>
</g>
</svg>
