<?xml version="1.0" standalone="no"?>
<!DOCTYPE svg PUBLIC "-//W3C//DTD SVG 20010904//EN"
 "http://www.w3.org/TR/2001/REC-SVG-20010904/DTD/svg10.dtd">
<svg version="1.0" xmlns="http://www.w3.org/2000/svg"
 width="61.000000pt" height="62.000000pt" viewBox="0 0 61.000000 62.000000"
 preserveAspectRatio="xMidYMid meet">

<g transform="translate(0.000000,62.000000) scale(0.100000,-0.100000)"
fill="#000000" stroke="none">
<path d="M0 310 l0 -310 305 0 305 0 0 310 0 310 -305 0 -305 0 0 -310z m228
260 c32 -20 62 -71 62 -106 0 -40 -34 -87 -77 -106 -40 -17 -49 -18 -86 -6
-58 18 -90 67 -84 126 10 93 106 140 185 92z m280 0 c89 -55 72 -205 -34 -299
-35 -30 -44 -45 -44 -70 0 -78 -54 -141 -122 -141 -80 0 -128 49 -128 132 0
38 -4 46 -35 66 -18 13 -41 35 -50 48 -16 24 -16 25 12 17 109 -30 197 28 210
138 13 107 106 160 191 109z"/>
</g>
</svg>
